<?xml version="1.0" encoding="utf-8"?>
<!-- Generator: Adobe Illustrator 19.0.0, SVG Export Plug-In . SVG Version: 6.00 Build 0)  -->
<svg version="1.1" id="Camada_1" xmlns="http://www.w3.org/2000/svg" xmlns:xlink="http://www.w3.org/1999/xlink" x="0px" y="0px"
	 viewBox="0 0 128 128" style="enable-background:new 0 0 128 128;" xml:space="preserve">
<g id="XMLID_2_">
	<radialGradient id="XMLID_7_" cx="64" cy="64" r="40.9384" gradientUnits="userSpaceOnUse">
		<stop  offset="0" style="stop-color:#FFFFFF;stop-opacity:0"/>
		<stop  offset="1" style="stop-color:#FFFFFF"/>
	</radialGradient>
	
		<circle id="XMLID_3_" style="fill:url(#XMLID_7_);stroke:#000000;stroke-width:0.5;stroke-miterlimit:10;" cx="64" cy="64" r="40.9"/>
	<radialGradient id="XMLID_11_" cx="64" cy="32.9395" r="4.4797" gradientUnits="userSpaceOnUse">
		<stop  offset="0" style="stop-color:#FFFFFF;stop-opacity:0"/>
		<stop  offset="1" style="stop-color:#FFFFFF"/>
	</radialGradient>
	<path id="XMLID_4_" style="fill:url(#XMLID_11_);stroke:#000000;stroke-width:0.2;stroke-miterlimit:10;" d="M59.6,34.3l2.7-4.6
		c0.8-1.3,2.7-1.3,3.4,0l2.7,4.6c0.8,1.3-0.2,3-1.7,3h-5.4C59.8,37.2,58.9,35.6,59.6,34.3z"/>
	
		<radialGradient id="XMLID_12_" cx="46.5116" cy="48.4651" r="4.4797" gradientTransform="matrix(4.489659e-011 -1 1 4.489659e-011 -16.1551 110.5116)" gradientUnits="userSpaceOnUse">
		<stop  offset="0" style="stop-color:#FFFFFF;stop-opacity:0"/>
		<stop  offset="1" style="stop-color:#FFFFFF"/>
	</radialGradient>
	<path id="XMLID_9_" style="fill:url(#XMLID_12_);stroke:#000000;stroke-width:0.2;stroke-miterlimit:10;" d="M33.6,68.4L29,65.7
		c-1.3-0.8-1.3-2.7,0-3.4l4.6-2.7c1.3-0.8,3,0.2,3,1.7v5.4C36.6,68.2,35,69.1,33.6,68.4z"/>
	
		<radialGradient id="XMLID_13_" cx="46.5116" cy="48.4651" r="4.4797" gradientTransform="matrix(0 -1 -1 0 144.1551 110.5116)" gradientUnits="userSpaceOnUse">
		<stop  offset="0" style="stop-color:#FFFFFF;stop-opacity:0"/>
		<stop  offset="1" style="stop-color:#FFFFFF"/>
	</radialGradient>
	<path id="XMLID_10_" style="fill:url(#XMLID_13_);stroke:#000000;stroke-width:0.2;stroke-miterlimit:10;" d="M94.4,68.4l4.6-2.7
		c1.3-0.8,1.3-2.7,0-3.4l-4.6-2.7c-1.3-0.8-3,0.2-3,1.7v5.4C91.4,68.2,93,69.1,94.4,68.4z"/>
	
		<radialGradient id="XMLID_14_" cx="64" cy="32.9395" r="4.4797" gradientTransform="matrix(1 0 0 -1 0 128)" gradientUnits="userSpaceOnUse">
		<stop  offset="0" style="stop-color:#FFFFFF;stop-opacity:0"/>
		<stop  offset="1" style="stop-color:#FFFFFF"/>
	</radialGradient>
	<path id="XMLID_8_" style="fill:url(#XMLID_14_);stroke:#000000;stroke-width:0.2;stroke-miterlimit:10;" d="M59.6,93.7l2.7,4.6
		c0.8,1.3,2.7,1.3,3.4,0l2.7-4.6c0.8-1.3-0.2-3-1.7-3h-5.4C59.8,90.8,58.9,92.4,59.6,93.7z"/>
</g>
</svg>
